<svg aria-roledescription="flowchart-v2" role="graphics-document document" viewBox="-8 -8 1393.37890625 504.43145751953125" style="max-width: 1393.37890625px;" xmlns="http://www.w3.org/2000/svg" width="100%" id="mermaid-svg-1751642251553-j41byyf2p"><style>#mermaid-svg-1751642251553-j41byyf2p{font-family:"trebuchet ms",verdana,arial,sans-serif;font-size:16px;fill:#cccccc;}#mermaid-svg-1751642251553-j41byyf2p .error-icon{fill:#000000;}#mermaid-svg-1751642251553-j41byyf2p .error-text{fill:#ff0000;stroke:#ff0000;}#mermaid-svg-1751642251553-j41byyf2p .edge-thickness-normal{stroke-width:2px;}#mermaid-svg-1751642251553-j41byyf2p .edge-thickness-thick{stroke-width:3.5px;}#mermaid-svg-1751642251553-j41byyf2p .edge-pattern-solid{stroke-dasharray:0;}#mermaid-svg-1751642251553-j41byyf2p .edge-pattern-dashed{stroke-dasharray:3;}#mermaid-svg-1751642251553-j41byyf2p .edge-pattern-dotted{stroke-dasharray:2;}#mermaid-svg-1751642251553-j41byyf2p .marker{fill:#cccccc;stroke:#cccccc;}#mermaid-svg-1751642251553-j41byyf2p .marker.cross{stroke:#cccccc;}#mermaid-svg-1751642251553-j41byyf2p svg{font-family:"trebuchet ms",verdana,arial,sans-serif;font-size:16px;}#mermaid-svg-1751642251553-j41byyf2p .label{font-family:"trebuchet ms",verdana,arial,sans-serif;color:#cccccc;}#mermaid-svg-1751642251553-j41byyf2p .cluster-label text{fill:#ffffff;}#mermaid-svg-1751642251553-j41byyf2p .cluster-label span,#mermaid-svg-1751642251553-j41byyf2p p{color:#ffffff;}#mermaid-svg-1751642251553-j41byyf2p .label text,#mermaid-svg-1751642251553-j41byyf2p span,#mermaid-svg-1751642251553-j41byyf2p p{fill:#cccccc;color:#cccccc;}#mermaid-svg-1751642251553-j41byyf2p .node rect,#mermaid-svg-1751642251553-j41byyf2p .node circle,#mermaid-svg-1751642251553-j41byyf2p .node ellipse,#mermaid-svg-1751642251553-j41byyf2p .node polygon,#mermaid-svg-1751642251553-j41byyf2p .node path{fill:#0a0a0a;stroke:#2a2a2a;stroke-width:1px;}#mermaid-svg-1751642251553-j41byyf2p .flowchart-label text{text-anchor:middle;}#mermaid-svg-1751642251553-j41byyf2p .node .label{text-align:center;}#mermaid-svg-1751642251553-j41byyf2p .node.clickable{cursor:pointer;}#mermaid-svg-1751642251553-j41byyf2p .arrowheadPath{fill:#f5f5f5;}#mermaid-svg-1751642251553-j41byyf2p .edgePath .path{stroke:#cccccc;stroke-width:2.0px;}#mermaid-svg-1751642251553-j41byyf2p .flowchart-link{stroke:#cccccc;fill:none;}#mermaid-svg-1751642251553-j41byyf2p .edgeLabel{background-color:#0a0a0a99;text-align:center;}#mermaid-svg-1751642251553-j41byyf2p .edgeLabel rect{opacity:0.5;background-color:#0a0a0a99;fill:#0a0a0a99;}#mermaid-svg-1751642251553-j41byyf2p .labelBkg{background-color:rgba(10, 10, 10, 0.5);}#mermaid-svg-1751642251553-j41byyf2p .cluster rect{fill:rgba(64, 64, 64, 0.42);stroke:#6fc3df;stroke-width:1px;}#mermaid-svg-1751642251553-j41byyf2p .cluster text{fill:#ffffff;}#mermaid-svg-1751642251553-j41byyf2p .cluster span,#mermaid-svg-1751642251553-j41byyf2p p{color:#ffffff;}#mermaid-svg-1751642251553-j41byyf2p div.mermaidTooltip{position:absolute;text-align:center;max-width:200px;padding:2px;font-family:"trebuchet ms",verdana,arial,sans-serif;font-size:12px;background:#88c0d0;border:1px solid rgba(0, 0, 0, 0);border-radius:2px;pointer-events:none;z-index:100;}#mermaid-svg-1751642251553-j41byyf2p .flowchartTitleText{text-anchor:middle;font-size:18px;fill:#cccccc;}#mermaid-svg-1751642251553-j41byyf2p :root{--mermaid-font-family:"trebuchet ms",verdana,arial,sans-serif;}</style><g><marker orient="auto" markerHeight="12" markerWidth="12" markerUnits="userSpaceOnUse" refY="5" refX="6" viewBox="0 0 10 10" class="marker flowchart" id="mermaid-svg-1751642251553-j41byyf2p_flowchart-pointEnd"><path style="stroke-width: 1; stroke-dasharray: 1, 0;" class="arrowMarkerPath" d="M 0 0 L 10 5 L 0 10 z"/></marker><marker orient="auto" markerHeight="12" markerWidth="12" markerUnits="userSpaceOnUse" refY="5" refX="4.5" viewBox="0 0 10 10" class="marker flowchart" id="mermaid-svg-1751642251553-j41byyf2p_flowchart-pointStart"><path style="stroke-width: 1; stroke-dasharray: 1, 0;" class="arrowMarkerPath" d="M 0 5 L 10 10 L 10 0 z"/></marker><marker orient="auto" markerHeight="11" markerWidth="11" markerUnits="userSpaceOnUse" refY="5" refX="11" viewBox="0 0 10 10" class="marker flowchart" id="mermaid-svg-1751642251553-j41byyf2p_flowchart-circleEnd"><circle style="stroke-width: 1; stroke-dasharray: 1, 0;" class="arrowMarkerPath" r="5" cy="5" cx="5"/></marker><marker orient="auto" markerHeight="11" markerWidth="11" markerUnits="userSpaceOnUse" refY="5" refX="-1" viewBox="0 0 10 10" class="marker flowchart" id="mermaid-svg-1751642251553-j41byyf2p_flowchart-circleStart"><circle style="stroke-width: 1; stroke-dasharray: 1, 0;" class="arrowMarkerPath" r="5" cy="5" cx="5"/></marker><marker orient="auto" markerHeight="11" markerWidth="11" markerUnits="userSpaceOnUse" refY="5.2" refX="12" viewBox="0 0 11 11" class="marker cross flowchart" id="mermaid-svg-1751642251553-j41byyf2p_flowchart-crossEnd"><path style="stroke-width: 2; stroke-dasharray: 1, 0;" class="arrowMarkerPath" d="M 1,1 l 9,9 M 10,1 l -9,9"/></marker><marker orient="auto" markerHeight="11" markerWidth="11" markerUnits="userSpaceOnUse" refY="5.2" refX="-1" viewBox="0 0 11 11" class="marker cross flowchart" id="mermaid-svg-1751642251553-j41byyf2p_flowchart-crossStart"><path style="stroke-width: 2; stroke-dasharray: 1, 0;" class="arrowMarkerPath" d="M 1,1 l 9,9 M 10,1 l -9,9"/></marker><g class="root"><g class="clusters"><g id="subGraph3" class="cluster default flowchart-label"><rect height="117.43147277832031" width="821.375" y="371" x="551.42578125" ry="0" rx="0" style=""/><g transform="translate(900.74609375, 371)" class="cluster-label"><foreignObject height="19" width="122.734375"><div style="display: inline-block; white-space: nowrap;" xmlns="http://www.w3.org/1999/xhtml"><span class="nodeLabel">External Services</span></div></foreignObject></g></g><g id="Database" class="cluster default flowchart-label"><rect height="117.43147277832031" width="505.078125" y="371" x="26.34765625" ry="0" rx="0" style=""/><g transform="translate(246.13671875, 371)" class="cluster-label"><foreignObject height="19" width="65.5"><div style="display: inline-block; white-space: nowrap;" xmlns="http://www.w3.org/1999/xhtml"><span class="nodeLabel">Database</span></div></foreignObject></g></g><g id="subGraph1" class="cluster default flowchart-label"><rect height="84" width="1087.98046875" y="237" x="0" ry="0" rx="0" style=""/><g transform="translate(482.248046875, 237)" class="cluster-label"><foreignObject height="19" width="123.484375"><div style="display: inline-block; white-space: nowrap;" xmlns="http://www.w3.org/1999/xhtml"><span class="nodeLabel">Backend (NestJS)</span></div></foreignObject></g></g><g id="Frontend" class="cluster default flowchart-label"><rect height="187" width="1353.68359375" y="0" x="23.6953125" ry="0" rx="0" style=""/><g transform="translate(668.201171875, 0)" class="cluster-label"><foreignObject height="19" width="64.671875"><div style="display: inline-block; white-space: nowrap;" xmlns="http://www.w3.org/1999/xhtml"><span class="nodeLabel">Frontend</span></div></foreignObject></g></g></g><g class="edgePaths"><path marker-end="url(#mermaid-svg-1751642251553-j41byyf2p_flowchart-pointEnd)" style="fill:none;" class="edge-thickness-normal edge-pattern-solid flowchart-link LS-A LE-D" id="L-A-D-0" d="M709.375,49.668L644.033,56.973C578.691,64.279,448.008,78.889,382.666,91.061C317.324,103.233,317.324,112.967,317.324,117.833L317.324,122.7"/><path marker-end="url(#mermaid-svg-1751642251553-j41byyf2p_flowchart-pointEnd)" style="fill:none;" class="edge-thickness-normal edge-pattern-solid flowchart-link LS-B LE-D" id="L-B-D-0" d="M1263.722,59L1256.703,64.75C1249.684,70.5,1235.647,82,1087.558,95.784C939.468,109.568,657.327,125.636,516.257,133.671L375.186,141.705"/><path marker-end="url(#mermaid-svg-1751642251553-j41byyf2p_flowchart-pointEnd)" style="fill:none;" class="edge-thickness-normal edge-pattern-solid flowchart-link LS-D LE-E" id="L-D-E-0" d="M264.754,154.603L235.193,160.002C205.633,165.402,146.512,176.201,116.951,185.767C87.391,195.333,87.391,203.667,87.391,212C87.391,220.333,87.391,228.667,87.391,236.117C87.391,243.567,87.391,250.133,87.391,253.417L87.391,256.7"/><path marker-end="url(#mermaid-svg-1751642251553-j41byyf2p_flowchart-pointEnd)" style="fill:none;" class="edge-thickness-normal edge-pattern-solid flowchart-link LS-D LE-F" id="L-D-F-0" d="M286.608,162L279.08,166.167C271.551,170.333,256.494,178.667,248.966,187C241.438,195.333,241.438,203.667,241.438,212C241.438,220.333,241.438,228.667,241.438,236.117C241.438,243.567,241.438,250.133,241.438,253.417L241.438,256.7"/><path marker-end="url(#mermaid-svg-1751642251553-j41byyf2p_flowchart-pointEnd)" style="fill:none;" class="edge-thickness-normal edge-pattern-solid flowchart-link LS-D LE-G" id="L-D-G-0" d="M369.895,160.917L384.252,165.264C398.609,169.611,427.324,178.306,441.682,186.82C456.039,195.333,456.039,203.667,456.039,212C456.039,220.333,456.039,228.667,456.039,236.117C456.039,243.567,456.039,250.133,456.039,253.417L456.039,256.7"/><path marker-end="url(#mermaid-svg-1751642251553-j41byyf2p_flowchart-pointEnd)" style="fill:none;" class="edge-thickness-normal edge-pattern-solid flowchart-link LS-D LE-H" id="L-D-H-0" d="M369.895,150.535L427.615,156.613C485.336,162.69,600.777,174.845,658.498,185.089C716.219,195.333,716.219,203.667,716.219,212C716.219,220.333,716.219,228.667,716.219,236.117C716.219,243.567,716.219,250.133,716.219,253.417L716.219,256.7"/><path marker-end="url(#mermaid-svg-1751642251553-j41byyf2p_flowchart-pointEnd)" style="fill:none;" class="edge-thickness-normal edge-pattern-solid flowchart-link LS-D LE-I" id="L-D-I-0" d="M369.895,148.383L469.924,154.819C569.954,161.255,770.014,174.128,870.044,184.73C970.074,195.333,970.074,203.667,970.074,212C970.074,220.333,970.074,228.667,970.074,236.117C970.074,243.567,970.074,250.133,970.074,253.417L970.074,256.7"/><path marker-end="url(#mermaid-svg-1751642251553-j41byyf2p_flowchart-pointEnd)" style="fill:none;" class="edge-thickness-normal edge-pattern-solid flowchart-link LS-E LE-J" id="L-E-J-0" d="M87.391,296L87.391,300.167C87.391,304.333,87.391,312.667,87.391,321C87.391,329.333,87.391,337.667,87.391,346C87.391,354.333,87.391,362.667,101.204,372.849C115.017,383.031,142.643,395.062,156.457,401.078L170.27,407.094"/><path marker-end="url(#mermaid-svg-1751642251553-j41byyf2p_flowchart-pointEnd)" style="fill:none;" class="edge-thickness-normal edge-pattern-solid flowchart-link LS-F LE-J" id="L-F-J-0" d="M241.438,296L241.438,300.167C241.438,304.333,241.438,312.667,241.438,321C241.438,329.333,241.438,337.667,241.438,346C241.438,354.333,241.438,362.667,240.312,370.309C239.187,377.951,236.937,384.902,235.812,388.377L234.687,391.853"/><path marker-end="url(#mermaid-svg-1751642251553-j41byyf2p_flowchart-pointEnd)" style="fill:none;" class="edge-thickness-normal edge-pattern-solid flowchart-link LS-G LE-J" id="L-G-J-0" d="M410.217,296L398.986,300.167C387.755,304.333,365.294,312.667,354.063,321C342.832,329.333,342.832,337.667,342.832,346C342.832,354.333,342.832,362.667,331.323,374.117C319.814,385.567,296.797,400.135,285.288,407.418L273.779,414.702"/><path marker-end="url(#mermaid-svg-1751642251553-j41byyf2p_flowchart-pointEnd)" style="fill:none;" class="edge-thickness-normal edge-pattern-solid flowchart-link LS-H LE-J" id="L-H-J-0" d="M682.197,296L673.858,300.167C665.519,304.333,648.842,312.667,640.503,321C632.164,329.333,632.164,337.667,587.275,346C542.387,354.333,452.609,362.667,392.947,373.002C333.285,383.337,303.738,395.675,288.965,401.844L274.192,408.012"/><path marker-end="url(#mermaid-svg-1751642251553-j41byyf2p_flowchart-pointEnd)" style="fill:none;" class="edge-thickness-normal edge-pattern-solid flowchart-link LS-I LE-K" id="L-I-K-0" d="M912.702,296L898.641,300.167C884.579,304.333,856.455,312.667,842.394,321C828.332,329.333,828.332,337.667,764.637,346C700.941,354.333,573.551,362.667,509.855,370.117C446.16,377.567,446.16,384.133,446.16,387.417L446.16,390.7"/><path marker-end="url(#mermaid-svg-1751642251553-j41byyf2p_flowchart-pointEnd)" style="fill:none;" class="edge-thickness-normal edge-pattern-solid flowchart-link LS-H LE-L" id="L-H-L-0" d="M753.503,296L762.641,300.167C771.779,304.333,790.056,312.667,799.194,321C808.332,329.333,808.332,337.667,810.732,346C813.132,354.333,817.931,362.667,820.331,372.903C822.73,383.139,822.73,395.277,822.73,401.346L822.73,407.416"/><path marker-end="url(#mermaid-svg-1751642251553-j41byyf2p_flowchart-pointEnd)" style="fill:none;" class="edge-thickness-normal edge-pattern-solid flowchart-link LS-I LE-M" id="L-I-M-0" d="M988.921,296L993.54,300.167C998.16,304.333,1007.398,312.667,1012.017,321C1016.637,329.333,1016.637,337.667,1016.637,346C1016.637,354.333,1016.637,362.667,1016.637,372.903C1016.637,383.139,1016.637,395.277,1016.637,401.346L1016.637,407.416"/><path marker-end="url(#mermaid-svg-1751642251553-j41byyf2p_flowchart-pointEnd)" style="fill:none;" class="edge-thickness-normal edge-pattern-solid flowchart-link LS-G LE-N" id="L-G-N-0" d="M519.233,296L534.721,300.167C550.21,304.333,581.187,312.667,596.675,321C612.164,329.333,612.164,337.667,617.404,346C622.645,354.333,633.125,362.667,638.365,372.903C643.605,383.139,643.605,395.277,643.605,401.346L643.605,407.416"/><path marker-end="url(#mermaid-svg-1751642251553-j41byyf2p_flowchart-pointEnd)" style="fill:none;" class="edge-thickness-normal edge-pattern-solid flowchart-link LS-A LE-O" id="L-A-O-0" d="M846.547,50.99L900.596,58.075C954.646,65.16,1062.745,79.33,1116.794,94.998C1170.844,110.667,1170.844,127.833,1170.844,143.417C1170.844,159,1170.844,173,1170.844,184.167C1170.844,195.333,1170.844,203.667,1170.844,212C1170.844,220.333,1170.844,228.667,1170.844,239.833C1170.844,251,1170.844,265,1170.844,279C1170.844,293,1170.844,307,1170.844,318.167C1170.844,329.333,1170.844,337.667,1170.844,346C1170.844,354.333,1170.844,362.667,1183.514,373.38C1196.184,384.094,1221.525,397.188,1234.195,403.736L1246.865,410.283"/><path marker-end="url(#mermaid-svg-1751642251553-j41byyf2p_flowchart-pointEnd)" style="fill:none;" class="edge-thickness-normal edge-pattern-solid flowchart-link LS-B LE-O" id="L-B-O-0" d="M1292.851,59L1295.685,64.75C1298.519,70.5,1304.187,82,1307.021,96.333C1309.855,110.667,1309.855,127.833,1309.855,143.417C1309.855,159,1309.855,173,1309.855,184.167C1309.855,195.333,1309.855,203.667,1309.855,212C1309.855,220.333,1309.855,228.667,1309.855,239.833C1309.855,251,1309.855,265,1309.855,279C1309.855,293,1309.855,307,1309.855,318.167C1309.855,329.333,1309.855,337.667,1309.855,346C1309.855,354.333,1309.855,362.667,1307.2,372.975C1304.545,383.284,1299.235,395.567,1296.58,401.709L1293.925,407.851"/></g><g class="edgeLabels"><g transform="translate(317.32421875, 93.5)" class="edgeLabel"><g transform="translate(-30.765625, -9.5)" class="label"><foreignObject height="19" width="61.53125"><div style="display: inline-block; white-space: nowrap;" xmlns="http://www.w3.org/1999/xhtml"><span class="edgeLabel">API Calls</span></div></foreignObject></g></g><g transform="translate(1221.609375, 93.5)" class="edgeLabel"><g transform="translate(-30.765625, -9.5)" class="label"><foreignObject height="19" width="61.53125"><div style="display: inline-block; white-space: nowrap;" xmlns="http://www.w3.org/1999/xhtml"><span class="edgeLabel">API Calls</span></div></foreignObject></g></g><g class="edgeLabel"><g transform="translate(0, 0)" class="label"><foreignObject height="0" width="0"><div style="display: inline-block; white-space: nowrap;" xmlns="http://www.w3.org/1999/xhtml"><span class="edgeLabel"></span></div></foreignObject></g></g><g class="edgeLabel"><g transform="translate(0, 0)" class="label"><foreignObject height="0" width="0"><div style="display: inline-block; white-space: nowrap;" xmlns="http://www.w3.org/1999/xhtml"><span class="edgeLabel"></span></div></foreignObject></g></g><g class="edgeLabel"><g transform="translate(0, 0)" class="label"><foreignObject height="0" width="0"><div style="display: inline-block; white-space: nowrap;" xmlns="http://www.w3.org/1999/xhtml"><span class="edgeLabel"></span></div></foreignObject></g></g><g class="edgeLabel"><g transform="translate(0, 0)" class="label"><foreignObject height="0" width="0"><div style="display: inline-block; white-space: nowrap;" xmlns="http://www.w3.org/1999/xhtml"><span class="edgeLabel"></span></div></foreignObject></g></g><g class="edgeLabel"><g transform="translate(0, 0)" class="label"><foreignObject height="0" width="0"><div style="display: inline-block; white-space: nowrap;" xmlns="http://www.w3.org/1999/xhtml"><span class="edgeLabel"></span></div></foreignObject></g></g><g class="edgeLabel"><g transform="translate(0, 0)" class="label"><foreignObject height="0" width="0"><div style="display: inline-block; white-space: nowrap;" xmlns="http://www.w3.org/1999/xhtml"><span class="edgeLabel"></span></div></foreignObject></g></g><g class="edgeLabel"><g transform="translate(0, 0)" class="label"><foreignObject height="0" width="0"><div style="display: inline-block; white-space: nowrap;" xmlns="http://www.w3.org/1999/xhtml"><span class="edgeLabel"></span></div></foreignObject></g></g><g class="edgeLabel"><g transform="translate(0, 0)" class="label"><foreignObject height="0" width="0"><div style="display: inline-block; white-space: nowrap;" xmlns="http://www.w3.org/1999/xhtml"><span class="edgeLabel"></span></div></foreignObject></g></g><g class="edgeLabel"><g transform="translate(0, 0)" class="label"><foreignObject height="0" width="0"><div style="display: inline-block; white-space: nowrap;" xmlns="http://www.w3.org/1999/xhtml"><span class="edgeLabel"></span></div></foreignObject></g></g><g class="edgeLabel"><g transform="translate(0, 0)" class="label"><foreignObject height="0" width="0"><div style="display: inline-block; white-space: nowrap;" xmlns="http://www.w3.org/1999/xhtml"><span class="edgeLabel"></span></div></foreignObject></g></g><g class="edgeLabel"><g transform="translate(0, 0)" class="label"><foreignObject height="0" width="0"><div style="display: inline-block; white-space: nowrap;" xmlns="http://www.w3.org/1999/xhtml"><span class="edgeLabel"></span></div></foreignObject></g></g><g class="edgeLabel"><g transform="translate(0, 0)" class="label"><foreignObject height="0" width="0"><div style="display: inline-block; white-space: nowrap;" xmlns="http://www.w3.org/1999/xhtml"><span class="edgeLabel"></span></div></foreignObject></g></g><g class="edgeLabel"><g transform="translate(0, 0)" class="label"><foreignObject height="0" width="0"><div style="display: inline-block; white-space: nowrap;" xmlns="http://www.w3.org/1999/xhtml"><span class="edgeLabel"></span></div></foreignObject></g></g><g class="edgeLabel"><g transform="translate(0, 0)" class="label"><foreignObject height="0" width="0"><div style="display: inline-block; white-space: nowrap;" xmlns="http://www.w3.org/1999/xhtml"><span class="edgeLabel"></span></div></foreignObject></g></g><g class="edgeLabel"><g transform="translate(0, 0)" class="label"><foreignObject height="0" width="0"><div style="display: inline-block; white-space: nowrap;" xmlns="http://www.w3.org/1999/xhtml"><span class="edgeLabel"></span></div></foreignObject></g></g></g><g class="nodes"><g transform="translate(822.73046875, 429.71573638916016)" id="flowchart-L-104" class="node default default flowchart-label"><rect height="34" width="143.890625" y="-17" x="-71.9453125" ry="0" rx="0" style="" class="basic label-container"/><g transform="translate(-64.4453125, -9.5)" style="" class="label"><rect/><foreignObject height="19" width="128.890625"><div style="display: inline-block; white-space: nowrap;" xmlns="http://www.w3.org/1999/xhtml"><span class="nodeLabel">Payment Gateway</span></div></foreignObject></g></g><g transform="translate(1016.63671875, 429.71573638916016)" id="flowchart-M-105" class="node default default flowchart-label"><rect height="34" width="143.921875" y="-17" x="-71.9609375" ry="0" rx="0" style="" class="basic label-container"/><g transform="translate(-64.4609375, -9.5)" style="" class="label"><rect/><foreignObject height="19" width="128.921875"><div style="display: inline-block; white-space: nowrap;" xmlns="http://www.w3.org/1999/xhtml"><span class="nodeLabel">Push Notifications</span></div></foreignObject></g></g><g transform="translate(643.60546875, 429.71573638916016)" id="flowchart-N-106" class="node default default flowchart-label"><rect height="34" width="114.359375" y="-17" x="-57.1796875" ry="0" rx="0" style="" class="basic label-container"/><g transform="translate(-49.6796875, -9.5)" style="" class="label"><rect/><foreignObject height="19" width="99.359375"><div style="display: inline-block; white-space: nowrap;" xmlns="http://www.w3.org/1999/xhtml"><span class="nodeLabel">Cloud Storage</span></div></foreignObject></g></g><g transform="translate(1284.47265625, 429.71573638916016)" id="flowchart-O-107" class="node default default flowchart-label"><rect height="34" width="106.65625" y="-17" x="-53.328125" ry="0" rx="0" style="" class="basic label-container"/><g transform="translate(-45.828125, -9.5)" style="" class="label"><rect/><foreignObject height="19" width="91.65625"><div style="display: inline-block; white-space: nowrap;" xmlns="http://www.w3.org/1999/xhtml"><span class="nodeLabel">Maps Service</span></div></foreignObject></g></g><g transform="translate(222.21484375, 429.71573638916016)" id="flowchart-J-102" class="node default default flowchart-label"><path transform="translate(-47.0859375,-33.11267555428816)" d="M 0,10.741783702858772 a 47.0859375,10.741783702858772 0,0,0 94.171875 0 a 47.0859375,10.741783702858772 0,0,0 -94.171875 0 l 0,44.74178370285877 a 47.0859375,10.741783702858772 0,0,0 94.171875 0 l 0,-44.74178370285877" style=""/><g transform="translate(-39.5859375, -9.5)" style="" class="label"><rect/><foreignObject height="19" width="79.171875"><div style="display: inline-block; white-space: nowrap;" xmlns="http://www.w3.org/1999/xhtml"><span class="nodeLabel">PostgreSQL</span></div></foreignObject></g></g><g transform="translate(446.16015625, 429.71573638916016)" id="flowchart-K-103" class="node default default flowchart-label"><path transform="translate(-50.265625,-33.71574061244284)" d="M 0,11.143827074961894 a 50.265625,11.143827074961894 0,0,0 100.53125 0 a 50.265625,11.143827074961894 0,0,0 -100.53125 0 l 0,45.14382707496189 a 50.265625,11.143827074961894 0,0,0 100.53125 0 l 0,-45.14382707496189" style=""/><g transform="translate(-42.765625, -9.5)" style="" class="label"><rect/><foreignObject height="19" width="85.53125"><div style="display: inline-block; white-space: nowrap;" xmlns="http://www.w3.org/1999/xhtml"><span class="nodeLabel">Redis Cache</span></div></foreignObject></g></g><g transform="translate(87.390625, 279)" id="flowchart-E-93" class="node default default flowchart-label"><rect height="34" width="104.78125" y="-17" x="-52.390625" ry="0" rx="0" style="" class="basic label-container"/><g transform="translate(-44.890625, -9.5)" style="" class="label"><rect/><foreignObject height="19" width="89.78125"><div style="display: inline-block; white-space: nowrap;" xmlns="http://www.w3.org/1999/xhtml"><span class="nodeLabel">Auth Service</span></div></foreignObject></g></g><g transform="translate(241.4375, 279)" id="flowchart-F-95" class="node default default flowchart-label"><rect height="34" width="103.3125" y="-17" x="-51.65625" ry="0" rx="0" style="" class="basic label-container"/><g transform="translate(-44.15625, -9.5)" style="" class="label"><rect/><foreignObject height="19" width="88.3125"><div style="display: inline-block; white-space: nowrap;" xmlns="http://www.w3.org/1999/xhtml"><span class="nodeLabel">User Service</span></div></foreignObject></g></g><g transform="translate(456.0390625, 279)" id="flowchart-G-97" class="node default default flowchart-label"><rect height="34" width="162.265625" y="-17" x="-81.1328125" ry="0" rx="0" style="" class="basic label-container"/><g transform="translate(-73.6328125, -9.5)" style="" class="label"><rect/><foreignObject height="19" width="147.265625"><div style="display: inline-block; white-space: nowrap;" xmlns="http://www.w3.org/1999/xhtml"><span class="nodeLabel">Service Management</span></div></foreignObject></g></g><g transform="translate(716.21875, 279)" id="flowchart-H-99" class="node default default flowchart-label"><rect height="34" width="133.078125" y="-17" x="-66.5390625" ry="0" rx="0" style="" class="basic label-container"/><g transform="translate(-59.0390625, -9.5)" style="" class="label"><rect/><foreignObject height="19" width="118.078125"><div style="display: inline-block; white-space: nowrap;" xmlns="http://www.w3.org/1999/xhtml"><span class="nodeLabel">Payment Service</span></div></foreignObject></g></g><g transform="translate(970.07421875, 279)" id="flowchart-I-101" class="node default default flowchart-label"><rect height="34" width="156.25" y="-17" x="-78.125" ry="0" rx="0" style="" class="basic label-container"/><g transform="translate(-70.625, -9.5)" style="" class="label"><rect/><foreignObject height="19" width="141.25"><div style="display: inline-block; white-space: nowrap;" xmlns="http://www.w3.org/1999/xhtml"><span class="nodeLabel">Notification Service</span></div></foreignObject></g></g><g transform="translate(317.32421875, 145)" id="flowchart-D-89" class="node default default flowchart-label"><rect height="34" width="105.140625" y="-17" x="-52.5703125" ry="0" rx="0" style="" class="basic label-container"/><g transform="translate(-45.0703125, -9.5)" style="" class="label"><rect/><foreignObject height="19" width="90.140625"><div style="display: inline-block; white-space: nowrap;" xmlns="http://www.w3.org/1999/xhtml"><span class="nodeLabel">API Gateway</span></div></foreignObject></g></g><g transform="translate(777.9609375, 42)" id="flowchart-A-88" class="node default default flowchart-label"><rect height="34" width="137.171875" y="-17" x="-68.5859375" ry="0" rx="0" style="" class="basic label-container"/><g transform="translate(-61.0859375, -9.5)" style="" class="label"><rect/><foreignObject height="19" width="122.171875"><div style="display: inline-block; white-space: nowrap;" xmlns="http://www.w3.org/1999/xhtml"><span class="nodeLabel">React Native App</span></div></foreignObject></g></g><g transform="translate(1284.47265625, 42)" id="flowchart-B-90" class="node default default flowchart-label"><rect height="34" width="115.8125" y="-17" x="-57.90625" ry="0" rx="0" style="" class="basic label-container"/><g transform="translate(-50.40625, -9.5)" style="" class="label"><rect/><foreignObject height="19" width="100.8125"><div style="display: inline-block; white-space: nowrap;" xmlns="http://www.w3.org/1999/xhtml"><span class="nodeLabel">Web Interface</span></div></foreignObject></g></g></g></g></g></svg>